<?xml version="1.0" encoding="UTF-8"?>
<svg width="73px" height="44px" viewBox="0 0 73 44" version="1.1" xmlns="http://www.w3.org/2000/svg" xmlns:xlink="http://www.w3.org/1999/xlink">
    <title>Group 17</title>
    <g id="Page-1" stroke="none" stroke-width="1" fill="none" fill-rule="evenodd" stroke-linecap="round" stroke-linejoin="round">
        <g id="wireframe" transform="translate(-1016.000000, -45.000000)" stroke="#FFFFFF" stroke-width="2.56981326">
            <g id="Group-4" transform="translate(397.000000, 47.000000)">
                <g id="Group-3-Copy-3" transform="translate(602.636463, 0.000000)">
                    <g id="Group-17" transform="translate(18.471616, 0.000000)">
                        <path d="M5.68110174,14.2236578 L63.3457629,14.2236578 L60.8079727,21.6806124 C60.8079727,21.6806124 44.002505,14.5797197 39.3383191,14.2236578" id="Stroke-1"></path>
                        <path d="M0,30.4753427 L0,37.6042117 C0,38.9267275 1.1416199,40 2.55064627,40 L66.7179127,40 C68.126939,40 69.268559,38.9267275 69.268559,37.6042117 L69.268559,30.4753427" id="Stroke-3"></path>
                        <path d="M14.3358148,4.7483405 L10.3067193,4.7483405 C9.08796294,4.7483405 8.03890681,5.27226023 7.80492616,5.99710064 L0.0732796559,30.1813373 C-0.235266264,31.1376179 0.847215671,32.0964419 2.45422567,32.0964419 L66.7166271,32.0964419 C68.3236371,32.0964419 69.5295374,31.206287 69.2184202,30.2500064 L61.3659266,5.99710064 C61.1293747,5.27226023 60.0828898,4.7483405 58.8615622,4.7483405 L54.8170394,4.7483405" id="Stroke-5"></path>
                        <path d="M14.3358148,4.7483405 L15.1328917,2.28642641 C15.4594362,0.918131183 16.1639494,0 17.4392725,0 L28.6137772,0 C29.8891004,0 30.5704726,0.918131183 30.920158,2.28642641 L31.7172349,4.7483405" id="Stroke-7"></path>
                        <path d="M14.3358148,4.7483405 L13.9784158,5.85213256 C13.9784158,7.1136092 15.0120446,8.13855897 16.2847965,8.13855897 L29.7682532,8.13855897 C31.0410051,8.13855897 32.074634,7.1136092 32.074634,5.85213256 L31.7172349,4.7483405" id="Stroke-9"></path>
                        <path d="M37.390623,4.7483405 L38.1877,2.28642641 C38.5142444,0.918131183 39.2187576,0 40.4940807,0 L51.6685855,0 C52.9439086,0 53.6252808,0.918131183 53.9749662,2.28642641 L54.7720432,4.7483405" id="Stroke-11"></path>
                        <path d="M37.390623,4.7483405 L37.033224,5.85213256 C37.033224,7.1136092 38.0668528,8.13855897 39.3396048,8.13855897 L52.8230614,8.13855897 C54.0958134,8.13855897 55.1294422,7.1136092 55.1294422,5.85213256 L54.7720432,4.7483405" id="Stroke-13"></path>
                        <line x1="32.0736055" y1="4.74859483" x2="36.912634" y2="4.74859483" id="Stroke-15"></line>
                    </g>
                </g>
            </g>
        </g>
    </g>
</svg>